<svg xmlns="http://www.w3.org/2000/svg" viewBox="0 0 366 366"><g id="Layer_1-2" data-name="Layer 1"><path fill="#f3cc30" d="M328,60.11c-14-13.93-26.48-26-38.48-38.57-2.49-2.61-4.74-7.1-4.4-10.44.82-8,11.07-11.43,16.9-5.72q29.63,29,58.66,58.54c4.23,4.3,4,9.7-.26,14q-28.65,28.95-57.59,57.6c-4.52,4.48-10.54,4.5-14.61.61-4.8-4.59-5-9.78,0-15,10.78-11.1,21.83-22,32.76-32.91,1.79-1.81,3.5-3.7,6.27-6.64-18.12,0-35-1-51.62.2-38,2.77-74.16,12.65-107.7,31C92.26,154.23,45.41,217.43,27.64,301.73c-3.45,16.35-3.37,33.46-4.79,50.23-.42,5-1.38,10-6.88,11.16-3.28.7-8.31.45-10.25-1.57-2.58-2.69-4.11-7.55-4-11.43.79-34.37,6.11-68.06,19-100,39.86-98.88,112.18-160.16,216-183.89,26.75-6.11,54.19-6.64,81.58-6.09C320.81,60.15,323.34,60.11,328,60.11Z"/></g></svg>